PathFileType	4	(X/Y/Z)	C:\Users\chris\Documents\GitHub\baseballds\vids\pitch1_Sports2D\pitch1_Sports2D_m_person00.trc
DataRate	CameraRate	NumFrames	NumMarkers	Units	OrigDataRate	OrigDataStartFrame	OrigNumFrames
30	30	8	22	m	30	134	154
Frame#	Time	Hip			RHip			RKnee			RAnkle			RBigToe			RSmallToe			RHeel			LHip			LKnee			LAnkle			LBigToe			LSmallToe			LHeel			Neck			Head			Nose			RShoulder			RElbow			RWrist			LShoulder			LElbow			LWrist		
		X1	Y1	Z1	X2	Y2	Z2	X3	Y3	Z3	X4	Y4	Z4	X5	Y5	Z5	X6	Y6	Z6	X7	Y7	Z7	X8	Y8	Z8	X9	Y9	Z9	X10	Y10	Z10	X11	Y11	Z11	X12	Y12	Z12	X13	Y13	Z13	X14	Y14	Z14	X15	Y15	Z15	X16	Y16	Z16	X17	Y17	Z17	X18	Y18	Z18	X19	Y19	Z19	X20	Y20	Z20	X21	Y21	Z21	X22	Y22	Z22
134	4.466666666666667	2.852292059736702	1.010679337150487	0.0	2.9214792992740755	0.9727225927682629	0.0	2.7455887267296197	0.5066156045381214	0.0	2.2933021717995876	0.6129593574313761	0.0	2.087161632920394	0.4811255417278145	0.0	2.1047206845511113	0.49753249207360883	0.0	2.2359600931195454	0.6860389447236315	0.0	2.757933204337063	0.9882198155370445	0.0	2.9347672962445666	0.5010511421378493	0.0	3.031721304528248	0.0723400486126568	0.0	3.2229190718638763	-0.005012285774083751	0.0	3.1961665871098632	0.0030511541166986754	0.0	2.9900115606386497	-0.0002582144701511552	0.0	3.0382776201970083	1.4464877768901634	0.0	3.131949649993569	1.6675315849812653	0.0	3.1769945261147425	1.5074018315124984	0.0	3.1882426099289183	1.3149795790699992	0.0	3.0934464111642663	1.085392879988172	0.0	2.87119340581264	1.0726697817877187	0.0	2.8115479325843356	1.4003733643441105	0.0	2.598174710849046	1.26017245323633	0.0	2.6341556194605658	1.1252457473502095	0.0
135	4.5	2.868273299193627	1.036683877388705	0.0	2.941692186120211	1.0046353544773183	0.0	2.790523991978405	0.558724908971306	0.0	2.4048993152984197	0.7058486895730279	0.0	2.2018886044915624	0.6101585166149868	0.0	2.2268840422416383	0.611425058399122	0.0	2.342990333456991	0.774983448037429	0.0	2.7733575530340913	1.0084594725017886	0.0	2.934484126341015	0.510266539253475	0.0	3.029267667740078	0.07753775276466997	0.0	3.219088205262838	-0.005700813065653968	0.0	3.1887952831805837	0.0011083805071888993	0.0	2.989960686657957	0.0004976939906605251	0.0	3.0432650174745803	1.4671149224952842	0.0	3.140673594713037	1.6945122126800338	0.0	3.1837983391278923	1.5323555062517376	0.0	3.198704806024128	1.343717067269313	0.0	3.1170011757848712	1.0847504591614296	0.0	2.916288953296751	1.0755225481120423	0.0	2.82793639910369	1.4336109454431274	0.0	2.590511134585924	1.3186945998655648	0.0	2.5737745783629644	1.2190765580331984	0.0
136	4.533333333333333	2.87382686214878	1.043284139280843	0.0	2.9497620298180083	1.0211456940375732	0.0	2.8591819702773917	0.5917704983429368	0.0	2.5785183460496874	0.771438210573326	0.0	2.4162009079488014	0.6732515455199265	0.0	2.4368961542917207	0.6799520326721097	0.0	2.510510421875279	0.824552818669357	0.0	2.7784153344222524	1.0126786926294327	0.0	2.9378346679886005	0.5133268148132526	0.0	3.0255460022179794	0.08270182153313949	0.0	3.2100769816456807	-0.0045541400284156664	0.0	3.179018453070848	0.00227569536867636	0.0	2.9897766755781947	0.004355829166872825	0.0	3.0428473286443034	1.4815598617035641	0.0	3.1443002801277644	1.7214091645840226	0.0	3.180930105238185	1.5568022863207371	0.0	3.2055841384519277	1.3706776453938898	0.0	3.1600900813801345	1.0698769918441287	0.0	3.0185485199757793	1.0425073353414804	0.0	2.834084698363251	1.453338898321268	0.0	2.5858654533409613	1.349137909913911	0.0	2.5424164969921375	1.295648746062089	0.0
137	4.566666666666666	2.875514775509196	1.035315775485724	0.0	2.953106560094355	1.0238208808694385	0.0	2.958392809361093	0.6073544720294856	0.0	2.771562730244646	0.7994430132660738	0.0	2.6864783679754747	0.6342058839421585	0.0	2.686593998928405	0.7006815732090277	0.0	2.708495541216706	0.8202659421204952	0.0	2.779609058970856	1.006901094768798	0.0	2.9414698845614935	0.5105770248206118	0.0	3.021164640242736	0.08618812601096647	0.0	3.1969230715018604	-0.0003827115064893631	0.0	3.1686535556690756	0.005145268496530191	0.0	2.992233021056468	0.013157384711463492	0.0	3.037947451263517	1.4952602957411132	0.0	3.1440927119278017	1.7456120463307867	0.0	3.1743304247335313	1.5780414587893388	0.0	3.2026132974390924	1.3962498169601971	0.0	3.218168905099972	1.0776486049103653	0.0	3.174636448952313	1.0260092862729024	0.0	2.831502920932217	1.4661860529678166	0.0	2.5847417593431627	1.3564225084307597	0.0	2.5426320823016373	1.3440845330872015	0.0
138	4.6	2.8775936748824815	1.0219315782130607	0.0	2.9583685581966015	1.0215456864579258	0.0	3.0882495306129054	0.6224441961913437	0.0	2.9527825401392236	0.7840007032985314	0.0	2.962158688397706	0.507041331231638	0.0	2.9445577990539116	0.6675146013428623	0.0	2.9095817951530556	0.7703210748550753	0.0	2.7830403225874467	0.9976443756134806	0.0	2.945461976347794	0.5077163432305919	0.0	3.0189676634725866	0.08898318451540325	0.0	3.187711348939268	0.0029099111467934167	0.0	3.1617825845853598	0.006468164893538393	0.0	2.998544097101758	0.023698374439112938	0.0	3.0295902417565594	1.5095487150014815	0.0	3.1385325065664818	1.764872848746942	0.0	3.1669628505051337	1.5944189630491588	0.0	3.1885304531610994	1.4198213580511996	0.0	3.280483281029219	1.1136029098613773	0.0	3.366365693063954	1.0433960303369216	0.0	2.8246051950514803	1.474123604275173	0.0	2.5804523979121385	1.3418715926577007	0.0	2.5660709052947865	1.363859459454245	0.0
139	4.633333333333333	2.8792351576506507	1.0123368880221857	0.0	2.965380420462657	1.0236782693198545	0.0	3.223757526748665	0.6529243416170691	0.0	3.1272347575377237	0.7168723179901012	0.0	3.2279746231431092	0.3526021601886173	0.0	3.221002299290193	0.5548540832041164	0.0	3.100774847603888	0.6868440933310223	0.0	2.7893087965380006	0.988794308457921	0.0	2.9509577939323504	0.5088167891049563	0.0	3.0193570896376904	0.09149471573706026	0.0	3.186692861768873	0.0018401734549093548	0.0	3.158664711857556	0.005141494109172241	0.0	3.002774137977568	0.030024291964200565	0.0	3.0194006495029706	1.5213665870211317	0.0	3.1280278057500994	1.7762836287303083	0.0	3.1598884189764904	1.604678542226556	0.0	3.1682897817725806	1.438833416563862	0.0	3.333807255809691	1.1595728479831715	0.0	3.544895245715468	1.096125213784838	0.0	2.817127017118671	1.4757683738904561	0.0	2.574301755546022	1.3133827761393322	0.0	2.610972254604533	1.3620430843178932	0.0
140	4.666666666666667	2.879528566377904	1.0098547881262636	0.0	2.9713636093631908	1.0304481794821203	0.0	3.3290834032473646	0.6950342380165899	0.0	3.3065468071795796	0.6012435668151771	0.0	3.489589897680325	0.24222283015005316	0.0	3.5062903034091253	0.3911437421756314	0.0	3.2790266167712527	0.5685310997753764	0.0	2.7965267696407077	0.9814521018347881	0.0	2.956509072303531	0.5123273870918442	0.0	3.0200077805186494	0.0910430867942687	0.0	3.188323227327618	0.0007086493376906048	0.0	3.1542164245652757	0.0037580102374792862	0.0	3.0001614170983553	0.028385891397924263	0.0	3.008102975454728	1.5305605651677057	0.0	3.115219115843589	1.779186720447952	0.0	3.1548112492637026	1.6079469704880842	0.0	3.145437114793555	1.454246390761012	0.0	3.369242290213324	1.2038169185672698	0.0	3.664590569802694	1.1786833668368475	0.0	2.8109237777771012	1.471628588518554	0.0	2.5776569030513157	1.2839050221123243	0.0	2.6774573549156795	1.3499169347382924	0.0
141	4.7	2.8815892837798653	1.0114687677117327	0.0	2.9780395188542057	1.0351208258655091	0.0	3.391768049133736	0.7329975017926926	0.0	3.475727108190657	0.47021893205498205	0.0	3.727384346424137	0.21093863836810847	0.0	3.7427719042100898	0.2708246964609451	0.0	3.439877274907068	0.4290289670863784	0.0	2.805184607787044	0.9750162021699779	0.0	2.9608239151499807	0.5132763337452618	0.0	3.019283333209083	0.08517039392414605	0.0	3.186628390875752	0.004589639048659328	0.0	3.146090022753004	0.00444520028879117	0.0	2.9943598295796297	0.020372947533506738	0.0	2.9959234291705914	1.540828104623935	0.0	3.1012777350191407	1.777079976940944	0.0	3.1519812037802923	1.6066175928208866	0.0	3.1194843456808785	1.469479702828584	0.0	3.38261358260549	1.2492654732739723	0.0	3.71495940089581	1.276124366429885	0.0	2.805826001888425	1.464062767576858	0.0	2.600760310003148	1.2594896242112927	0.0	2.7552338996772394	1.3311775899191018	0.0
